<svg width="81" height="76" viewBox="0 0 81 76" fill="none" xmlns="http://www.w3.org/2000/svg">
<path d="M0 0H76C78.7614 0 81 2.23858 81 5V71C81 73.7614 78.7614 76 76 76H0V0Z" fill="#34B2FF"/>
<g clip-path="url(#clip0)">
<path d="M53.995 25.4907C53.9911 25.4608 53.9865 25.4319 53.9775 25.4025C53.9679 25.3703 53.9549 25.3409 53.9402 25.3109C53.9323 25.2945 53.9294 25.277 53.9198 25.2612C53.9136 25.251 53.9034 25.2442 53.8961 25.2346C53.8774 25.2086 53.8554 25.186 53.8322 25.1628C53.809 25.1396 53.7858 25.1182 53.7593 25.0995C53.7497 25.0927 53.7434 25.0831 53.7338 25.0775C53.718 25.0678 53.7005 25.0656 53.6841 25.0577C53.653 25.0424 53.6224 25.0294 53.5897 25.0198C53.562 25.0124 53.5348 25.0085 53.5066 25.0051C53.4732 25.0011 53.441 24.9989 53.4076 25.0006C53.3765 25.0023 53.3466 25.0085 53.316 25.0158C53.2968 25.0204 53.277 25.0187 53.2578 25.0254L28.3828 33.5056C28.1578 33.5813 28.0046 33.791 28.0001 34.0291C27.9956 34.2671 28.1403 34.4825 28.3631 34.5678L39.9848 39.0334L45.0067 50.6591C45.0966 50.8666 45.3012 51 45.5257 51C45.5353 51 45.5443 51 45.5539 50.9994C45.7897 50.9876 45.9926 50.831 46.0644 50.6065L53.9792 25.7316C53.9848 25.714 53.9831 25.6959 53.9865 25.6778C53.9933 25.6462 53.9984 25.6157 53.9995 25.5834C54.0007 25.5518 53.999 25.5218 53.995 25.4907ZM30.2242 34.0715L51.3209 26.8792L40.2691 37.931L30.2242 34.0715ZM45.4448 48.8229L41.0804 38.7191L52.1967 27.6023L45.4448 48.8229Z" fill="white"/>
<path d="M36.8799 42.1199C36.6589 41.8988 36.3016 41.8988 36.0805 42.1199L28.1658 50.0347C27.9447 50.2557 27.9447 50.613 28.1658 50.834C28.276 50.9443 28.4208 50.9997 28.5655 50.9997C28.7102 50.9997 28.8549 50.9443 28.9652 50.834L36.8799 42.9193C37.101 42.6982 37.101 42.3409 36.8799 42.1199Z" fill="white"/>
<path d="M38.3419 46.0779L34.3845 50.0353C34.1635 50.2563 34.1635 50.6136 34.3845 50.8347C34.4948 50.9449 34.6395 51.0003 34.7842 51.0003C34.929 51.0003 35.0737 50.9449 35.1839 50.8347L39.1413 46.8773C39.3624 46.6562 39.3624 46.2989 39.1413 46.0779C38.9203 45.8568 38.563 45.8568 38.3419 46.0779Z" fill="white"/>
<path d="M28.5655 44.7816C28.7102 44.7816 28.8549 44.7262 28.9652 44.6159L32.9226 40.6585C33.1436 40.4375 33.1436 40.0802 32.9226 39.8591C32.7015 39.6381 32.3442 39.6381 32.1232 39.8591L28.1658 43.8165C27.9447 44.0376 27.9447 44.3949 28.1658 44.6159C28.276 44.7262 28.4208 44.7816 28.5655 44.7816Z" fill="white"/>
</g>
<defs>
<clipPath id="clip0">
<rect width="26" height="26" fill="white" transform="translate(28 25)"/>
</clipPath>
</defs>
</svg>
